<?xml version="1.0" standalone="no"?>
<!DOCTYPE svg PUBLIC "-//W3C//DTD SVG 20010904//EN"
 "http://www.w3.org/TR/2001/REC-SVG-20010904/DTD/svg10.dtd">
<svg version="1.0" xmlns="http://www.w3.org/2000/svg"
 width="740.000000pt" height="740.000000pt" viewBox="0 0 740.000000 740.000000"
 preserveAspectRatio="xMidYMid meet">
<metadata>
Created by potrace 1.14, written by Peter Selinger 2001-2017
</metadata>
<g transform="translate(0.000000,740.000000) scale(0.100000,-0.100000)"
fill="#000000" stroke="none">
<path d="M4030 6790 l0 -400 -1375 0 -1375 0 -2 -1027 -3 -1028 -153 -3 -152
-3 0 171 0 170 -175 0 -175 0 0 380 0 380 85 0 85 0 0 140 0 140 -150 0 -150
0 0 350 0 350 -90 0 -90 0 0 -350 0 -350 -155 0 -155 0 0 -135 0 -135 90 0 90
0 0 -430 0 -430 175 0 175 0 0 -160 0 -160 185 0 185 0 0 -165 0 -165 190 0
190 0 0 -1230 0 -1230 745 0 745 0 0 -535 0 -535 -485 0 -485 0 0 -160 0 -160
635 0 635 0 0 690 0 690 580 0 580 0 0 -675 0 -675 640 0 640 0 0 130 0 130
-475 0 -475 0 0 540 0 540 725 0 725 0 0 1210 0 1210 200 0 200 0 0 165 0 165
190 0 190 0 0 175 0 175 170 0 170 0 0 450 0 450 85 0 85 0 0 130 0 130 -155
0 -155 0 0 355 0 355 -80 0 -80 0 0 -355 0 -355 -165 0 -165 0 0 -130 0 -130
95 0 95 0 0 -415 0 -415 -165 0 -165 0 0 -175 0 -175 -175 0 -175 0 0 330 0
330 -465 0 -465 0 0 1130 0 1130 -525 0 -525 0 0 -400z"/>
</g>
</svg>
